<svg id="Layer_1" data-name="Layer 1" xmlns="http://www.w3.org/2000/svg" viewBox="0 0 352 300"><defs><style>.cls-1{fill:#af9c4b;}.cls-2{fill:#e6dfc3;}.cls-3{fill:#1e2221;}.cls-4{fill:#d8c267;}.cls-5{fill:#f195af;}.cls-6{fill:#bd7b60;}.cls-7{fill:#104f37;}.cls-8{fill:#a86958;}.cls-9{fill:#fff;}.cls-10{fill:#f1345b;}.cls-11{fill:#047650;}</style></defs><title>_</title><path class="cls-1" d="M175.72,262.68c40.47,10.65,55.84,10.59,96.69.28l-.65,33.21-94.21-4.25Z"/><path class="cls-1" d="M271.76,298.14h-.09l-94.21-4.26a2,2,0,0,1-1.87-1.84l-1.84-29.23a2,2,0,0,1,2.47-2c39.86,10.49,55.06,10.53,95.71.27a2,2,0,0,1,1.7.37,1.94,1.94,0,0,1,.75,1.58l-.65,33.21a2,2,0,0,1-.62,1.4A2,2,0,0,1,271.76,298.14ZM179.41,290l90.43,4.08.55-28.62c-38.73,9.62-54.6,9.59-92.54-.22Z"/><path class="cls-2" d="M205.07,241.47c-6.86,12.59-3.61,25.33,28,38.67,14.17.57,14.9-14,5.72-26.12a57.74,57.74,0,0,0-17-15.33Z"/><path class="cls-2" d="M233.83,281H233a1,1,0,0,1-.29-.07c-17.58-7.43-27.56-15.15-30.52-23.6-1.76-5-1.06-10.36,2.15-16.25a.81.81,0,0,1,.6-.43l16.69-2.78a.87.87,0,0,1,.57.11,58.09,58.09,0,0,1,17.23,15.55c5.89,7.8,7.81,16.45,4.9,22C243,278.06,240.11,281,233.83,281Zm-.62-1.69c4.66.15,8-1.43,9.62-4.55,2.57-4.92.66-13.05-4.76-20.23a56.4,56.4,0,0,0-16.47-14.95l-16,2.65c-2.8,5.31-3.4,10.07-1.84,14.54C206.55,264.72,216.18,272.09,233.21,279.31Z"/><circle class="cls-2" cx="211.32" cy="230.41" r="14.51"/><path class="cls-2" d="M211.32,245.76a15.36,15.36,0,1,1,15.35-15.35A15.37,15.37,0,0,1,211.32,245.76Zm0-29A13.67,13.67,0,1,0,225,230.41,13.68,13.68,0,0,0,211.32,216.74Z"/><path class="cls-2" d="M202.62,219c-6.57-7.09-18.61,1-14.71,15.18,1.37,4.94,7.84,4.9,9.46-.23s4.38-8.87,9.34-8.87h4.61V215.9Z"/><path class="cls-2" d="M192.48,238.67h-.11a5.59,5.59,0,0,1-5.27-4.29c-2.41-8.75,1-15.18,5.49-17.68a8.39,8.39,0,0,1,10.26,1.3l8.19-2.9a.85.85,0,0,1,1.12.8v9.16a.85.85,0,0,1-.84.84h-4.61c-4,0-6.78,2.71-8.54,8.29A6,6,0,0,1,192.48,238.67Zm4.45-21.45a7.24,7.24,0,0,0-3.52,1c-3.9,2.17-6.86,7.88-4.68,15.75a3.87,3.87,0,0,0,3.67,3h.07a4.39,4.39,0,0,0,4.1-3.3c2-6.28,5.39-9.47,10.14-9.47h3.76v-7.12l-7.57,2.68a.85.85,0,0,1-.9-.22A6.85,6.85,0,0,0,196.93,217.22Z"/><path class="cls-2" d="M220,219c6.57-7.09,18.61,1,14.7,15.18-1.36,4.94-7.83,4.9-9.45-.23s-4.38-8.87-9.34-8.87h-4.61V215.9Z"/><path class="cls-2" d="M230.16,238.67a6,6,0,0,1-5.69-4.48c-1.76-5.58-4.55-8.29-8.54-8.29h-4.61a.85.85,0,0,1-.85-.84V215.9a.85.85,0,0,1,.36-.69.84.84,0,0,1,.77-.11l8.19,2.9a8.39,8.39,0,0,1,10.26-1.3c4.47,2.5,7.9,8.93,5.48,17.68a5.57,5.57,0,0,1-5.26,4.29Zm-18-14.46h3.77c4.75,0,8.16,3.19,10.15,9.47a4.37,4.37,0,0,0,4.09,3.3h.07a3.87,3.87,0,0,0,3.67-3c2.17-7.87-.78-13.58-4.68-15.75a6.77,6.77,0,0,0-8.59,1.37.84.84,0,0,1-.9.22l-7.58-2.68Z"/><path class="cls-3" d="M208.77,232.32l1.74,2.25a1,1,0,0,0,1.38.19.8.8,0,0,0,.2-.21l1.6-2.25Z"/><path class="cls-3" d="M211.29,235.8h-.24a1.81,1.81,0,0,1-1.21-.71l-1.74-2.24A.83.83,0,0,1,208,232a.84.84,0,0,1,.75-.48l4.93,0h0a.85.85,0,0,1,.75.46.83.83,0,0,1-.06.87l-1.6,2.25a2.07,2.07,0,0,1-.38.4A1.79,1.79,0,0,1,211.29,235.8Zm-.81-2.64.7.9a.2.2,0,0,0,.09.06.17.17,0,0,0,.11,0l.67-.94Z"/><circle class="cls-3" cx="205.56" cy="227.7" r="1.31"/><path class="cls-3" d="M205.56,229.58a1.88,1.88,0,1,1,1.87-1.88A1.88,1.88,0,0,1,205.56,229.58Zm0-2.62a.75.75,0,1,0,.75.74A.75.75,0,0,0,205.56,227Z"/><circle class="cls-3" cx="216.87" cy="227.7" r="1.31"/><path class="cls-3" d="M216.87,229.58a1.88,1.88,0,1,1,1.87-1.88A1.88,1.88,0,0,1,216.87,229.58Zm0-2.62a.75.75,0,1,0,.74.74A.74.74,0,0,0,216.87,227Z"/><path class="cls-2" d="M202.27,254.18l3,20.54s-5-.16-4.26,4.32l9.33-1,1.5-23.16Z"/><path class="cls-2" d="M201,279.88a.85.85,0,0,1-.83-.71,4.28,4.28,0,0,1,.85-3.67,5.36,5.36,0,0,1,3.28-1.56l-2.85-19.64a.87.87,0,0,1,.22-.69.81.81,0,0,1,.68-.27l9.54.66a.85.85,0,0,1,.78.9l-1.5,23.17a.83.83,0,0,1-.75.78l-9.33,1Zm4.2-4.32a4.26,4.26,0,0,0-2.91,1.05,2.23,2.23,0,0,0-.52,1.49l7.77-.85,1.39-21.62-7.66-.53,2.83,19.5a.86.86,0,0,1-.21.68.81.81,0,0,1-.66.28Z"/><path class="cls-2" d="M224.74,272.46l-5.38,1.47a3.74,3.74,0,0,0-2.76,3.61V278h13.24Z"/><path class="cls-2" d="M229.84,278.87H216.6a.84.84,0,0,1-.84-.84v-.49a4.61,4.61,0,0,1,3.37-4.43l5.39-1.47a.87.87,0,0,1,.85.25l5.09,5.57a.84.84,0,0,1-.62,1.41ZM217.45,278Zm0-.84h10.46l-3.46-3.78-4.89,1.33A2.9,2.9,0,0,0,217.47,277.19Z"/><path class="cls-2" d="M242.19,278.9s9-6.63,9.71-20.15a29,29,0,0,1-14.14,13.85Z"/><path class="cls-2" d="M242.19,279.74h-.14a.84.84,0,0,1-.55-.35l-4.43-6.29a.83.83,0,0,1,.34-1.25,28.2,28.2,0,0,0,13.73-13.46.85.85,0,0,1,1-.45.83.83,0,0,1,.63.86c-.74,13.77-9.67,20.5-10.05,20.78A.84.84,0,0,1,242.19,279.74Zm-3.17-6.8,3.33,4.72a27.25,27.25,0,0,0,8.2-14.85A29.92,29.92,0,0,1,239,272.94Z"/><path class="cls-4" d="M224.43,280.11c9.66,0,23.52,1.21,35.42,4.64,1.4-9.1,4.36-15,7.41-18.71a9.41,9.41,0,0,1,15.65,1.62,26.42,26.42,0,0,1,2.18,17.69A15.68,15.68,0,0,1,269.7,297.9H179.14a15.7,15.7,0,0,1-15.39-12.55,26.42,26.42,0,0,1,2.18-17.69,9.4,9.4,0,0,1,12.66-4,9.53,9.53,0,0,1,3,2.44c3,3.75,6,9.61,7.41,18.71C200.91,281.31,214.8,280.11,224.43,280.11Z"/><path class="cls-4" d="M269.72,299.87H179.13a17.74,17.74,0,0,1-17.31-14.12,28.24,28.24,0,0,1,2.36-19,11.36,11.36,0,0,1,18.93-1.94c3.58,4.4,6.08,10.27,7.45,17.47,14.52-3.84,29.47-4.15,33.87-4.15s19.31.31,33.84,4.14c1.38-7.2,3.88-13.08,7.46-17.48a11.36,11.36,0,0,1,16-1.65,11.1,11.1,0,0,1,2.93,3.6,28.16,28.16,0,0,1,2.36,19A17.69,17.69,0,0,1,269.72,299.87Zm-90.58-3.93h90.58a13.77,13.77,0,0,0,13.44-11,24.36,24.36,0,0,0-2-16.4,7.56,7.56,0,0,0-1.92-2.36,7.44,7.44,0,0,0-10.45,1.08c-3.49,4.29-5.85,10.27-7,17.77a2,2,0,0,1-.89,1.36,1.92,1.92,0,0,1-1.6.23c-14.68-4.23-30.4-4.56-34.87-4.56s-20.24.33-34.89,4.58a2,2,0,0,1-2.49-1.59c-1.15-7.5-3.51-13.48-7-17.77a7.22,7.22,0,0,0-2.36-1.93,7.42,7.42,0,0,0-10,3.19,24.31,24.31,0,0,0-2,16.4,13.78,13.78,0,0,0,13.45,11Z"/><path class="cls-5" d="M213.53,238.18h-4.6C206.73,244.8,215.73,244.78,213.53,238.18Z"/><path class="cls-5" d="M211.22,243.7a3.09,3.09,0,0,1-1.84-.6c-1.35-1-1.72-2.89-1-5.1a.55.55,0,0,1,.53-.38h4.6a.56.56,0,0,1,.53.38c.73,2.21.37,4.11-1,5.1A3.12,3.12,0,0,1,211.22,243.7Zm-1.87-5c-.43,1.57-.19,2.81.69,3.45a2,2,0,0,0,2.37,0c.88-.64,1.13-1.89.7-3.45Z"/><path class="cls-6" d="M141.71,268.81c2.19,7,.17,7.16,24,6.55a5,5,0,0,1,4.8,3.21l.1.27a5,5,0,0,1-2.87,6.46l-29.77,11.44a6.8,6.8,0,0,1-8.78-4,6.68,6.68,0,0,1-.38-1.46c-.89-6.47-1-10.59-5-18.73Z"/><path class="cls-3" d="M173.87,281.23a10.89,10.89,0,0,0-11.21-6.92l-10.26,1,4.74,12.37Z"/><path class="cls-3" d="M157.14,289.63a2.05,2.05,0,0,1-.8-.17,2,2,0,0,1-1-1.1L150.56,276a2,2,0,0,1,1.65-2.67l10.26-1a12.89,12.89,0,0,1,13.24,8.18,2,2,0,0,1,0,1.5,2,2,0,0,1-1.09,1l-16.73,6.43A2.17,2.17,0,0,1,157.14,289.63Zm-2-12.63,3.11,8.12,12.85-4.94a9,9,0,0,0-8.27-3.91Z"/><path class="cls-3" d="M130.1,300a2,2,0,0,1-.71-3.8l27-10.39a2,2,0,1,1,1.42,3.67l-27,10.39A2,2,0,0,1,130.1,300Z"/><path class="cls-7" d="M68.34,162.47s5.33,18.58,19,31.9c1.76,1.72,3.53,3.59,5.13,5.46l13.77,16.07,15.93,61.62,24.7-9.49-7.25-54a98.12,98.12,0,0,0-1.87-9.93l-15.82-65.22Z"/><path class="cls-7" d="M122.15,279.49a1.9,1.9,0,0,1-.9-.22,1.93,1.93,0,0,1-1-1.25l-15.82-61.19L91,201.11c-1.54-1.79-3.28-3.64-5-5.34-13.87-13.52-19.27-32-19.5-32.76a2,2,0,0,1,1.1-2.34l53.57-23.59a2,2,0,0,1,2.7,1.34l15.82,65.21a99.83,99.83,0,0,1,1.91,10.13l7.25,54a2,2,0,0,1-1.24,2.09l-24.7,9.5A1.94,1.94,0,0,1,122.15,279.49ZM70.76,163.55C72.4,168.3,77.9,182.43,88.7,193c1.82,1.77,3.63,3.71,5.24,5.59l13.78,16.07a2.06,2.06,0,0,1,.41.79L123.5,274.9l21.2-8.15-7-52.46a97.48,97.48,0,0,0-1.83-9.73l-15.27-62.93Z"/><path class="cls-6" d="M97.63,274.93c-.48,7.31-2.42,6.75,20,14.71a5,5,0,0,1,3.32,4.72v.29a5,5,0,0,1-5,5H84.09a6.81,6.81,0,0,1-6.64-8.36C78.94,284.93,80.3,281,79.53,272Z"/><path class="cls-3" d="M123.16,298a10.86,10.86,0,0,0-8-10.48l-10-2.75V298Z"/><path class="cls-3" d="M123.16,300H105.23a2,2,0,0,1-2-2V284.8a2,2,0,0,1,2.49-1.9l10,2.75A12.87,12.87,0,0,1,125.13,298,2,2,0,0,1,123.16,300Zm-16-3.94H121a8.94,8.94,0,0,0-6.31-6.62l-7.46-2.06Z"/><path class="cls-3" d="M105.25,300h-29a2,2,0,1,1,0-3.94h29a2,2,0,0,1,0,3.94Z"/><path class="cls-6" d="M75.77,58.72c6.93-10-3-18.7-1-33.86L89.71,9.05,97.54,2.7c12.93,1.31,20.94,9.52,20.55,25.15a8.8,8.8,0,0,0,1.87,6c1.34,1.61,3.59,3.94,1.89,6.4-1.45,2.12-3.34,1.61-4.42,6.18s-2.31,7.46-10,10.12c-6.65,2.28-5.94,5.72-2.7,12.51Z"/><path class="cls-3" d="M115.77,35.33a1.15,1.15,0,0,1-.26,0,1.12,1.12,0,0,1-.84-1.34l2.76-12a1.13,1.13,0,0,1,1.35-.84,1.12,1.12,0,0,1,.85,1.34l-2.77,12A1.12,1.12,0,0,1,115.77,35.33Z"/><path class="cls-3" d="M117.15,29.32H117L96,26.36a1.13,1.13,0,1,1,.31-2.23l21,2.95a1.11,1.11,0,0,1,1,1.27A1.13,1.13,0,0,1,117.15,29.32Z"/><path class="cls-3" d="M92.81,2c-10,.43-22.18,9.56-22.56,23.54a33.71,33.71,0,0,0,3.17,15.89c4.39,9,14.37,3.84,9.91-5-6.7-13.2,7.87-16,9-7.31.72,5.46,6.19,4.87,5.86-.56-.48-8,6.62-9.12,6.26-17.13C104.12,3.67,98.79,1.74,92.81,2Z"/><path class="cls-3" d="M79.54,48.09h-.45c-3-.2-5.74-2.31-7.44-5.8a35.62,35.62,0,0,1-3.37-16.81c.4-14.61,13-25,24.44-25.45h0C97.2-.17,100.65.83,103,3c2.11,1.95,3.26,4.78,3.41,8.41.21,4.67-1.77,7.38-3.53,9.77-1.57,2.15-2.93,4-2.73,7.32.25,4.12-2.07,6.23-4.32,6.44s-4.91-1.41-5.45-5.5a3.36,3.36,0,0,0-5.93-2.09C83,29,83.28,32,85.08,35.58s1.78,6.9.09,9.46A6.68,6.68,0,0,1,79.54,48.09ZM92.89,4C84.46,4.31,72.58,12,72.21,25.58a32,32,0,0,0,3,15c1.07,2.18,2.59,3.49,4.17,3.59a2.76,2.76,0,0,0,2.54-1.28c.89-1.35.77-3.36-.32-5.51C80.37,35,77.94,29,81.4,24.82a7.29,7.29,0,0,1,12.87,4.09c.21,1.54.86,2.12,1.17,2.1s.87-.74.78-2.3c-.29-4.73,1.71-7.46,3.48-9.87,1.57-2.14,2.92-4,2.77-7.28-.11-2.6-.81-4.45-2.15-5.69-1.54-1.41-4-2.06-7.43-1.92Z"/><path class="cls-8" d="M92.27,69.13l14.54,9.43,23.7-33.95.17-1a6.57,6.57,0,0,1,6.79-5.43l13.3.64L158,32.54a3.4,3.4,0,0,1,4.82,4.78l-5.29,6.15a9.34,9.34,0,0,1-5.24,3.07l-3.14.64a21.34,21.34,0,0,0-14.77,11.25L116.74,93a7.62,7.62,0,0,1-10.23,3.33l-.21-.11L83.37,83.68Z"/><path class="cls-2" d="M66.3,138.87S68.11,102.28,68.6,87c.42-13,2.81-24.37,8.63-31.6,0,0,30.73,7.46,33.86,33.8.44,3.67-2.21,8.07.18,10.85,12.3,14.26,10.64,38.79,10.64,38.79C100,143,82.69,145.15,66.3,138.87Z"/><path class="cls-2" d="M89.36,144.76a65.49,65.49,0,0,1-23.76-4,2,2,0,0,1-1.27-1.93c0-.37,1.82-36.75,2.3-51.82s3.46-25.8,9.07-32.77a2,2,0,0,1,2-.68,59.78,59.78,0,0,1,16.35,7.28c11.07,7.07,17.64,16.82,19,28.19a16.53,16.53,0,0,1-.43,5c-.44,2.36-.66,3.86.14,4.79,6.67,7.73,9.33,18.27,10.39,25.75a75.85,75.85,0,0,1,.72,14.46,2,2,0,0,1-1.6,1.8C110.68,143,99.77,144.76,89.36,144.76Zm-21-7.23C84,143,101,140.73,120,137.22a76.88,76.88,0,0,0-.76-12.21c-1-6.94-3.44-16.67-9.46-23.65-2.09-2.43-1.52-5.44-1-8.09a13.68,13.68,0,0,0,.38-3.82c-1.22-10.27-7-18.78-17.11-25.28a58.52,58.52,0,0,0-14-6.49c-4.5,6.27-7,16.15-7.43,29.41S68.67,130.58,68.33,137.53Z"/><rect class="cls-9" x="85.9" y="23.71" width="13.81" height="29.11" rx="1.74" transform="translate(-7.15 47.5) rotate(-27.69)"/><path class="cls-9" d="M94.19,54.87a2.85,2.85,0,0,1-2.54-1.53L79.74,30.64a2.85,2.85,0,0,1,1.2-3.86h0L90.09,22A2.86,2.86,0,0,1,94,23.18l11.91,22.7a2.85,2.85,0,0,1-1.2,3.86l-9.15,4.81A2.85,2.85,0,0,1,94.19,54.87ZM82,28.77a.62.62,0,0,0-.25.83L93.64,52.3a.63.63,0,0,0,.36.3.64.64,0,0,0,.47,0l9.15-4.81a.61.61,0,0,0,.25-.82L92,24.23a.57.57,0,0,0-.36-.3.59.59,0,0,0-.47,0Z"/><path class="cls-10" d="M105.74,154h-.2a2,2,0,0,1-1.76-2.16c0-.35,3.49-35.4-1.74-64.51a2,2,0,1,1,3.87-.7c5.33,29.67,1.82,65.25,1.78,65.61A2,2,0,0,1,105.74,154Z"/><path class="cls-10" d="M66.3,140.84h-.09a2,2,0,0,1-1.88-2.05l2.3-51.85c.61-13.57,5.07-23.42,12.26-27,4-2,10.57-3,19.76,3.13a2,2,0,0,1-2.2,3.27c-6-4.06-11.48-5.05-15.79-2.88-5.88,3-9.56,11.6-10.1,23.7L68.26,139A2,2,0,0,1,66.3,140.84Z"/><path class="cls-11" d="M66.3,138.87c-.5,29.57,10.53,46.33,10.92,70.84l-1,66.34h26.45L116,210.83a144.77,144.77,0,0,0,2.65-19.9l3.26-52.06Z"/><path class="cls-11" d="M102.68,278H76.23a1.95,1.95,0,0,1-2-2l1-66.31c-.18-11-2.56-20.47-5.08-30.46-3-11.89-6.11-24.2-5.84-40.41a2,2,0,0,1,2-1.93h55.61a1.94,1.94,0,0,1,1.43.62,1.9,1.9,0,0,1,.53,1.47l-3.26,52.05a147.29,147.29,0,0,1-2.68,20.18l-13.32,65.21A2,2,0,0,1,102.68,278Zm-24.46-3.93h22.86l13-63.64a142.58,142.58,0,0,0,2.61-19.63l3.13-50H68.25c0,14.75,2.92,26.28,5.73,37.45,2.58,10.22,5,19.87,5.2,31.39v.06Z"/><path class="cls-6" d="M101.14,53.46,89.86,60.59,98.13,84.2h0L87.85,103.79l20.52,7.45a11.33,11.33,0,0,0,14-15.74Z"/><circle class="cls-10" cx="106.91" cy="136.65" r="3.14"/><path class="cls-10" d="M106.91,141.76a5.11,5.11,0,1,1,5.1-5.11A5.11,5.11,0,0,1,106.91,141.76Zm0-6.28a1.17,1.17,0,0,0,0,2.34,1.17,1.17,0,0,0,0-2.34Z"/><polygon class="cls-6" points="89.54 46.41 99.27 33.02 107.55 47.6 100.27 56.3 89.86 60.59 89.54 46.41"/><path class="cls-6" d="M89.86,60.59l-10.74-19a2.7,2.7,0,0,1,.72-3.49l.24-.18a2.7,2.7,0,0,1,3.73.45l5.42,6.75,5.1,12Z"/><circle class="cls-3" cx="83.18" cy="29.71" r="0.75"/><path class="cls-3" d="M83.18,31.31a1.6,1.6,0,1,1,1.6-1.6A1.6,1.6,0,0,1,83.18,31.31Zm0-1.69a.09.09,0,0,0-.09.09c0,.1.18.1.18,0A.09.09,0,0,0,83.18,29.62Z"/><path class="cls-6" d="M87,50.34l3.54-19A2.87,2.87,0,0,1,93.86,29h0a2.88,2.88,0,0,1,2.35,3.07L94.67,50.34Z"/></svg>